HIERARCHY
ROOT Hips
{
	OFFSET 0.000000 0.000000 0.000000
	CHANNELS 6 Xposition Yposition Zposition Zrotation Yrotation Xrotation 
	JOINT LowerBack
	{
		OFFSET 0.000000 0.000000 0.000000
		CHANNELS 3 Zrotation Yrotation Xrotation
		JOINT Spine
		{
			OFFSET 0.028270 2.035590 -0.193380
			CHANNELS 3 Zrotation Yrotation Xrotation
			JOINT Spine1
			{
				OFFSET 0.056720 2.048850 -0.042750
				CHANNELS 3 Zrotation Yrotation Xrotation
				JOINT Neck
				{
					OFFSET 0.000000 0.000000 0.000000
					CHANNELS 3 Zrotation Yrotation Xrotation
					JOINT Neck1
					{
						OFFSET -0.054170 1.746240 0.172020
						CHANNELS 3 Zrotation Yrotation Xrotation
						JOINT Head
						{
							OFFSET 0.104070 1.761360 -0.123970
							CHANNELS 3 Zrotation Yrotation Xrotation
							End Site
							{
								OFFSET 0.000000 0.000000 0.000000
							}
						}
					}
				}
				JOINT LeftShoulder
				{
					OFFSET 0.000000 0.000000 0.000000
					CHANNELS 3 Zrotation Yrotation Xrotation
					JOINT LeftArm
					{
						OFFSET 3.362410 1.200890 -0.311210
						CHANNELS 3 Zrotation Yrotation Xrotation
						JOINT LeftForeArm
						{
							OFFSET 4.983000 -0.000000 -0.000000
							CHANNELS 3 Zrotation Yrotation Xrotation
							JOINT LeftHand
							{
								OFFSET 3.483560 -0.000000 -0.000000
								CHANNELS 3 Zrotation Yrotation Xrotation
								JOINT LeftFingerBase
								{
									OFFSET 0.000000 0.000000 0.000000
									CHANNELS 3 Zrotation Yrotation Xrotation
									JOINT LeftHandIndex1
									{
										OFFSET 0.715260 -0.000000 -0.000000
										CHANNELS 3 Zrotation Yrotation Xrotation
										End Site
										{
											OFFSET 0.000000 0.000000 0.000000
										}
									}
								}
								JOINT LThumb
								{
									OFFSET 0.000000 0.000000 0.000000
									CHANNELS 3 Zrotation Yrotation Xrotation
									End Site
									{
										OFFSET 0.000000 0.000000 0.000000
									}
								}
							}
						}
					}
				}
				JOINT RightShoulder
				{
					OFFSET 0.000000 0.000000 0.000000
					CHANNELS 3 Zrotation Yrotation Xrotation
					JOINT RightArm
					{
						OFFSET -3.136600 1.374050 -0.404650
						CHANNELS 3 Zrotation Yrotation Xrotation
						JOINT RightForeArm
						{
							OFFSET -5.241900 -0.000000 -0.000000
							CHANNELS 3 Zrotation Yrotation Xrotation
							JOINT RightHand
							{
								OFFSET -3.444170 -0.000000 -0.000000
								CHANNELS 3 Zrotation Yrotation Xrotation
								JOINT RightFingerBase
								{
									OFFSET 0.000000 0.000000 0.000000
									CHANNELS 3 Zrotation Yrotation Xrotation
									JOINT RightHandIndex1
									{
										OFFSET -0.622530 -0.000000 -0.000000
										CHANNELS 3 Zrotation Yrotation Xrotation
										End Site
										{
											OFFSET 0.000000 0.000000 0.000000
										}
									}
								}
								JOINT RThumb
								{
									OFFSET 0.000000 0.000000 0.000000
									CHANNELS 3 Zrotation Yrotation Xrotation
									End Site
									{
										OFFSET 0.000000 0.000000 0.000000
									}
								}
							}
						}
					}
				}
			}
		}
	}
}
}
MOTION
Frames: 7
Frame Time: 0.008333
-1.472558 16.366565 1.287354 -165.631645 -86.016404 -175.388452 -0.584595 0.031976 -3.000120 -1.120123 -0.107132 -3.649828 -7.129442 -0.231499 0.390338 11.204314 -6.364126 -9.054736 -3.879462 -0.282724 -0.454662 0.000000 0.000000 0.000000 -4.591142 11.851095 2.801791 -71.359876 9.322471 3.194178 -3.379069 -24.410468 -0.011081 -0.974053 9.245308 -0.073447 -0.067752 -0.017905 -0.000000 0.000000 0.000000 0.000000 0.000000 0.000000 0.000000 18.367490 -0.472308 0.780464 71.384032 13.686788 9.335949 2.182106 46.365124 0.007421 -1.006528 8.075704 -0.077035 0.067662 -0.252592 0.000000 0.000000 0.000000 0.000000 0.000000 0.000000 0.000000 
-1.609539 16.340639 1.295330 -176.223670 -85.980929 -164.240399 -1.403742 -0.126023 -2.969366 -1.258463 -0.203604 -3.652231 -7.097360 -0.337591 0.358293 11.310369 -6.403796 -9.140299 -3.862511 -0.279465 -0.487251 0.000000 0.000000 0.000000 -4.189518 11.448896 2.876620 -71.593511 9.034921 3.504959 -3.376227 -24.949924 -0.011160 -1.055132 9.261670 -0.080033 -0.068437 -0.015234 -0.000000 0.000000 0.000000 0.000000 0.000000 0.000000 0.000000 18.452191 -0.621786 0.868327 71.727232 13.377246 8.987669 2.190397 45.772572 0.007329 -0.973267 7.993863 -0.073757 0.066708 -0.250527 0.000000 0.000000 0.000000 0.000000 0.000000 0.000000 0.000000 
-1.742257 16.309956 1.301911 174.674560 -86.009672 -154.529514 -2.102008 -0.333925 -2.925365 -1.378521 -0.358510 -3.651016 -7.067880 -0.500085 0.316417 11.411087 -6.428237 -9.228027 -3.846108 -0.276205 -0.522202 0.000000 0.000000 0.000000 -3.756452 10.973068 2.968748 -71.823157 8.755730 3.870897 -3.369206 -25.569329 -0.011164 -1.145998 9.264300 -0.087416 -0.068903 -0.011994 -0.000000 0.000000 0.000000 0.000000 0.000000 0.000000 0.000000 18.528748 -0.777423 0.959157 72.077788 13.090924 8.642403 2.192102 45.200425 0.007202 -0.929579 7.910861 -0.069784 0.065281 -0.248622 0.000000 0.000000 0.000000 0.000000 0.000000 0.000000 0.000000 
-1.870814 16.274190 1.307439 167.622663 -86.022229 -146.820793 -2.645125 -0.547879 -2.866245 -1.476152 -0.531141 -3.648651 -7.046200 -0.678881 0.261654 11.506831 -6.428528 -9.317698 -3.830787 -0.272946 -0.559299 0.000000 0.000000 0.000000 -3.311194 10.453270 3.069438 -72.030605 8.495033 4.302485 -3.355214 -26.285380 -0.011069 -1.248317 9.247734 -0.095397 -0.069012 -0.008451 -0.000000 0.000000 0.000000 0.000000 0.000000 0.000000 0.000000 18.596522 -0.906037 1.059440 72.426192 12.830357 8.309687 2.190310 44.649014 0.007113 -0.863052 7.822068 -0.064212 0.063494 -0.247007 0.000000 0.000000 0.000000 0.000000 0.000000 0.000000 0.000000 
-1.995339 16.233214 1.312358 162.596324 -85.976238 -141.095042 -3.069663 -0.747296 -2.795678 -1.555877 -0.698649 -3.646834 -7.031314 -0.852184 0.194475 11.597814 -6.402291 -9.411014 -3.816284 -0.269597 -0.598961 0.000000 0.000000 0.000000 -2.872697 9.918702 3.173503 -72.196949 8.247489 4.815287 -3.334319 -27.100438 -0.010876 -1.363618 9.207551 -0.104276 -0.068792 -0.004724 -0.000000 0.000000 0.000000 0.000000 0.000000 0.000000 0.000000 18.655411 -0.993562 1.171444 72.764533 12.603433 8.002350 2.186758 44.111903 0.007099 -0.764865 7.723342 -0.056441 0.061373 -0.245722 0.000000 0.000000 0.000000 0.000000 0.000000 0.000000 0.000000 
-2.116284 16.187117 1.317206 159.257995 -85.874695 -137.013873 -3.411811 -0.931848 -2.719413 -1.622032 -0.858157 -3.646892 -7.021241 -1.017759 0.114934 11.682858 -6.344205 -9.506370 -3.803169 -0.266206 -0.640759 0.000000 0.000000 0.000000 -2.458608 9.379356 3.280020 -72.304056 8.013009 5.413795 -3.307369 -28.013878 -0.010586 -1.491654 9.143657 -0.113754 -0.068297 -0.000807 -0.000000 0.000000 0.000000 0.000000 0.000000 0.000000 0.000000 18.706797 -1.034391 1.294704 73.085747 12.406868 7.720260 2.181870 43.585190 0.007182 -0.627194 7.610151 -0.046070 0.058840 -0.244700 0.000000 0.000000 0.000000 0.000000 0.000000 0.000000 0.000000 
-2.234101 16.136064 1.322467 157.235030 -85.737862 -134.204308 -3.687435 -1.107065 -2.642837 -1.676052 -1.013936 -3.648363 -7.014034 -1.179897 0.028980 11.761672 -6.262111 -9.607611 -3.791295 -0.262717 -0.685751 0.000000 0.000000 0.000000 -2.083472 8.857880 3.387746 -72.336527 7.766907 6.111078 -3.276018 -29.004840 -0.010212 -1.629315 9.056150 -0.123530 -0.067619 0.003398 -0.000000 0.000000 0.000000 0.000000 0.000000 0.000000 0.000000 18.752876 -1.040017 1.426038 73.382946 12.250459 7.473485 2.176501 43.058095 0.007366 -0.453263 7.482024 -0.033297 0.055975 -0.243812 0.000000 0.000000 0.000000 0.000000 0.000000 0.000000 0.000000 
